# xmcd CD database file
#
# Track frame offsets:
#	150
#	14417
#	31752
#	47977
#	63339
#	86564
#	102624
#	120061
#	136224
#	153799
#	168589
#	182454
#	194834
#	208014
#	225687
#	234822
#	248737
#	265549
#	278004
#	292204
#	306584
#
# Disc length: 4335 seconds
#
# Revision: 1
# Processed by: cddbd v1.5PL3 Copyright (c) Steve Scherf et al.
# Submitted via: CDex 1.50Beta6
#
DISCID=2210ed15
DTITLE=Los Lobobs - All Hits
DYEAR=1900
DGENRE=Blues
TTITLE0=Revolution
TTITLE1=Marciela
TTITLE2=Can't Stop The Rain
TTITLE3=Manny's Bones
TTITLE4=Little Japan
TTITLE5=Dream In Blue
TTITLE6=That Train Don't Stop Here
TTITLE7=Kiko and The Lavender Moon
TTITLE8=Two Janes
TTITLE9=Saint Behind The Glass
TTITLE10=Reva's House
TTITLE11=Arizona Skies
TTITLE12=Short Side of Nothing
TTITLE13=Paece
TTITLE14=Rio De Tenampa
TTITLE15=Run Away With You
TTITLE16=Oh Yeah
TTITLE17=Cumbia Raza
TTITLE18=Some Say, Some Do
TTITLE19=La Playa
TTITLE20=Corazon
EXTD=
EXTT0=
EXTT1=
EXTT2=
EXTT3=
EXTT4=
EXTT5=
EXTT6=
EXTT7=
EXTT8=
EXTT9=
EXTT10=
EXTT11=
EXTT12=
EXTT13=
EXTT14=
EXTT15=
EXTT16=
EXTT17=
EXTT18=
EXTT19=
EXTT20=
PLAYORDER=
